<svg xmlns="http://www.w3.org/2000/svg" xmlns:xlink="http://www.w3.org/1999/xlink" version="1.1" x="0px" y="0px" viewBox="0 0 100 125" enable-background="new 0 0 100 100" xml:space="preserve"><g><path d="M34.068,35.022c0.89,0.14,1.771,0.211,2.617,0.211c3.281,0,5.398-1.01,5.665-2.702c0.105-0.668-0.032-1.979-2.136-3.242   c-1.294-0.777-3.063-1.371-4.979-1.673c-0.891-0.141-1.772-0.211-2.618-0.211c-3.28,0-5.397,1.01-5.664,2.702   C26.571,32.538,30.243,34.419,34.068,35.022z M32.617,29.405c0.742,0,1.519,0.063,2.307,0.187c1.645,0.259,3.197,0.773,4.261,1.412   c1.03,0.618,1.208,1.097,1.19,1.216c-0.047,0.298-1.175,1.013-3.689,1.013c-0.742,0-1.518-0.063-2.306-0.187   c-3.717-0.586-5.529-2.127-5.451-2.628C28.976,30.12,30.104,29.405,32.617,29.405z"/><path d="M29.841,75.093c3.921,0,8.008-0.969,11.577-2.393c2.322-0.926,4.438-2.161,5.958-3.479   c1.909-1.656,3.064-3.492,3.531-5.614l0.027-0.122L50.93,63.36c-0.009-0.273-0.129-2.704-1.693-4.013   c-0.202-0.169-0.421-0.308-0.652-0.422c0.841-0.934,1.614-1.952,2.31-3.059c1.772-2.818,3.056-5.104,3.436-8.872   c0.395-3.933,0.216-8.27-0.528-12.889c0.473-4.678-7.101-9.428-17.838-11.119c-2.322-0.366-4.615-0.551-6.815-0.551   c-7.685,0-12.845,2.164-13.585,5.657c-6.11,11.153-6.626,20.501-1.524,27.787c0.209,0.299,0.444,0.621,0.69,0.952H7.703v2h8.62   c0.628,0.731,1.314,1.458,2.038,2.132c-0.55,0.387-1.046,0.881-1.447,1.444H6.703v2h9.301c-0.119,0.504-0.173,1.01-0.103,1.491   c0.175,1.193,0.8,3.001,1.611,4.001c0.615,0.759,1.303,1.397,2.027,1.974H6.703v2h16.259   C25.088,74.724,27.432,75.093,29.841,75.093z M17.974,64.729c0.285-0.978,1.131-2.013,2.029-2.405   c0.215,0.16,0.431,0.32,0.646,0.471C19.811,63.24,18.819,63.878,17.974,64.729z M20.788,60.422   c-0.642-0.502-1.26-1.082-1.849-1.688c-1.159-3.514-1.192-7.949-0.787-12.102c1.661,0.899,3.599,1.772,5.792,2.504   c-0.294,4.714-0.22,9.867,0.881,13.729C23.454,62.274,22.132,61.474,20.788,60.422z M13.63,37.762   c0.791,0.582,1.958,1.383,3.46,2.255c-0.206,1.06-0.403,2.204-0.578,3.403c-1.789-1.208-2.983-2.276-3.546-2.815   C13.133,39.677,13.353,38.73,13.63,37.762z M52.471,44.694c-0.516,0.249-1.029,0.494-1.536,0.718   c0.002-0.864-0.009-1.695-0.029-2.476c0.531-0.207,1.064-0.429,1.601-0.665C52.516,43.094,52.507,43.903,52.471,44.694z    M47.347,57.309c-1.242,1.444-2.649,2.662-4.22,3.648c1.219-3.094,1.838-7.413,2.146-11.417c1.173-0.32,2.363-0.684,3.584-1.131   C48.71,51.677,48.294,55.004,47.347,57.309z M36.799,72.122c-0.728,0.193-1.464,0.362-2.206,0.503   c0.242-2.179-0.11-5.098-0.35-6.681c0.558-0.06,1.109-0.131,1.649-0.223C36.501,66.604,37.68,68.865,36.799,72.122z M27.198,63.641   c-1.417-3.494-1.568-8.891-1.277-13.91c2.511,0.678,5.305,1.129,8.361,1.2c-0.222,5.901-0.745,11.364-1.737,13.137   C30.577,64.169,28.827,64.033,27.198,63.641z M37.142,45.603c2.039,0,4.169-0.18,6.371-0.568c-0.03,0.951-0.074,1.943-0.136,2.955   c-2.465,0.592-4.81,0.917-7.015,1.012c0.029-1.183,0.046-2.33,0.053-3.412C36.657,45.594,36.897,45.603,37.142,45.603z    M34.343,49.024c-3.058-0.05-5.827-0.512-8.291-1.2c0.106-1.33,0.237-2.605,0.376-3.789c2.421,0.71,5.094,1.249,7.977,1.464   C34.395,46.661,34.375,47.844,34.343,49.024z M34.749,63.87c0.947-2.888,1.375-8.02,1.555-12.943c2.19-0.071,4.5-0.348,6.923-0.879   c-0.44,5.201-1.387,10.434-3.277,12.506C38.346,63.182,36.611,63.621,34.749,63.87z M45.41,47.443   c0.053-0.989,0.089-1.937,0.113-2.82c1.113-0.26,2.245-0.583,3.391-0.964c0.015,0.822,0.019,1.692,0.007,2.587   C47.725,46.712,46.557,47.104,45.41,47.443z M52.184,37.088c0.118,1.026,0.201,2.033,0.257,3.022   c-0.54,0.25-1.079,0.493-1.613,0.713c-0.056-1.155-0.122-2.081-0.168-2.669C51.246,37.833,51.752,37.475,52.184,37.088z    M48.714,39.002c0.045,0.666,0.097,1.548,0.139,2.573c-1.114,0.388-2.211,0.71-3.293,0.979c0.009-1.17-0.001-2.119-0.013-2.766   C46.71,39.591,47.769,39.328,48.714,39.002z M43.553,40.041c0.016,0.856,0.02,1.856,0.005,2.95   c-2.485,0.467-4.872,0.64-7.139,0.594c-0.003-1.421-0.019-2.644-0.036-3.563c1.278,0.115,2.54,0.179,3.771,0.179   C41.354,40.202,42.483,40.143,43.553,40.041z M34.379,39.795c0.022,1.158,0.035,2.403,0.035,3.697   c-2.803-0.219-5.397-0.756-7.733-1.459c0.217-1.6,0.426-2.904,0.574-3.763c1.875,0.567,3.911,1.039,6.084,1.381   C33.687,39.706,34.033,39.749,34.379,39.795z M24.741,41.386c-2.048-0.736-3.859-1.574-5.387-2.39   c0.333-1.57,0.657-2.871,0.895-3.767c1.431,0.888,3.146,1.698,5.083,2.4C25.19,38.434,24.971,39.742,24.741,41.386z M17.52,37.953   c-1.537-0.929-2.644-1.739-3.24-2.204c0.509-1.435,1.13-2.91,1.87-4.427c0.514,0.922,1.313,1.819,2.361,2.67   C18.29,34.772,17.917,36.163,17.52,37.953z M18.951,41.034c1.594,0.823,3.448,1.652,5.527,2.376   c-0.143,1.179-0.279,2.458-0.392,3.801c-2.198-0.767-4.104-1.693-5.699-2.619C18.551,43.347,18.745,42.149,18.951,41.034z    M28.003,65.853c-0.788,1.542-1.783,4.184-1.261,6.991c-1.101-0.183-2.165-0.463-3.163-0.876v-0.094h-0.026   c0.221-3.198,1.734-5.547,2.444-6.485C26.651,65.578,27.315,65.74,28.003,65.853z M28.852,73.075   c-0.845-2.919,0.665-5.909,1.317-7.006c0.38,0.02,0.759,0.042,1.153,0.042c0.297,0,0.612-0.021,0.918-0.032   c0.283,1.851,0.641,5.069,0.293,6.856C31.293,73.076,30.059,73.133,28.852,73.075z M40.677,70.843   c-0.551,0.22-1.118,0.424-1.692,0.618c0.444-2.789-0.324-4.918-1.027-6.187c0.668-0.172,1.327-0.362,1.963-0.588   c0.794,0.612,2.586,2.354,2.395,5.426C41.788,70.372,41.242,70.618,40.677,70.843z M44.315,68.98   c-0.182-2.454-1.36-4.141-2.35-5.143c0.645-0.304,1.27-0.638,1.875-1.001c0.918,0.533,2.979,1.952,3.131,3.983   c-0.278,0.302-0.571,0.6-0.905,0.889C45.561,68.147,44.958,68.57,44.315,68.98z M48.424,64.69c-0.679-1.389-1.84-2.415-2.772-3.066   c0.435-0.329,0.853-0.681,1.261-1.044c0.545-0.024,0.856,0.149,1.037,0.3c0.697,0.579,0.93,1.854,0.974,2.427   C48.81,63.785,48.634,64.243,48.424,64.69z M50.509,52.598c0.214-1.632,0.332-3.339,0.386-4.999   c0.47-0.197,0.945-0.414,1.422-0.631C52.078,49.141,51.526,50.731,50.509,52.598z M17.488,28.616   c0.388-2.461,5.183-4.18,11.661-4.18c2.097,0,4.285,0.177,6.504,0.526c10.115,1.593,16.636,6.053,16.162,9.059   c-0.387,2.461-5.182,4.18-11.66,4.18c-2.097,0-4.285-0.177-6.504-0.526C23.536,36.082,17.015,31.622,17.488,28.616z M12.652,42.966   c0.852,0.702,2.047,1.605,3.589,2.565c-0.361,3.226-0.487,6.693-0.07,9.891c-0.174-0.238-0.34-0.469-0.494-0.688   C13.299,51.337,12.298,47.401,12.652,42.966z M18.432,67.485c0.868-1.902,3.312-3.057,4.256-3.442   c0.443,0.236,0.891,0.453,1.343,0.646c-0.841,1.225-2.027,3.396-2.393,6.242c-0.947-0.616-1.82-1.361-2.574-2.291   C18.854,68.381,18.631,67.959,18.432,67.485z"/><path d="M70.118,33.072c0.337,0,0.687-0.012,1.045-0.037c1.306-0.09,2.535-0.34,3.462-0.704c1.635-0.642,1.929-1.495,1.887-2.096   c-0.129-1.874-3.287-2.076-4.64-2.076c-0.337,0-0.687,0.012-1.045,0.037c-1.803,0.125-4.045,0.619-4.927,1.634   c-0.385,0.442-0.44,0.879-0.421,1.166C65.608,32.87,68.766,33.072,70.118,33.072z M70.966,30.192   c1.371-0.095,2.496,0.05,3.091,0.215c-0.586,0.253-1.619,0.536-3.032,0.633c-1.369,0.095-2.496-0.05-3.091-0.215   C68.52,30.572,69.553,30.29,70.966,30.192z"/><rect x="10.036" y="77.63" width="79.333" height="2"/><path d="M87.831,64.074c-0.441-1.619-1.68-2.923-2.62-3.725l0.867-1.518h5.125v-2h-3.982l1.741-3.049   c0.042-0.09,1.021-2.224,0.063-5.791l-4.779-18.475l-0.004,0.001c-0.42-2.838-5.838-3.86-10.862-3.86   c-0.891,0-1.806,0.032-2.722,0.095c-6.457,0.446-12.864,2.5-12.932,5.58l-0.006-0.001l-2.654,19.706   c-0.017,0.121-0.38,3.006,1.48,5.363l0.816,1.252c-0.085,0.077-0.162,0.168-0.244,0.252H52.08v2h3.668   c-0.617,1.321-0.889,2.815-0.614,4.071c0.574,2.63,2.786,4.458,4.053,5.313c0.235,0.159,0.504,0.312,0.756,0.468h-9.18v2h13.103   c3.256,1.354,7.054,2.292,10.729,2.292c3.914-0.001,7.678-1.057,10.461-3.78c1.082-1.06,2.484-2.452,2.842-4.194h4.472v-2H87.831z    M85.993,65.133c0.022,0.388-0.082,0.771-0.255,1.148c-0.621-1.455-1.671-2.569-2.503-3.279c0.232-0.175,0.47-0.338,0.695-0.53   l0.268-0.35C85.126,62.983,85.932,64.079,85.993,65.133z M78.935,63.083L79.48,52.81c0.994-0.368,1.994-0.82,2.994-1.36   l-1.856,10.876C80.072,62.621,79.51,62.873,78.935,63.083z M79.644,71.242c-0.973,0.332-2.002,0.55-3.068,0.668   c0.429-2.286-0.291-4.597-0.9-6.021c0.832-0.097,1.663-0.254,2.486-0.47C78.862,66.441,80.248,68.861,79.644,71.242z    M60.834,67.962c0.502-2.45,2.348-3.28,3.018-3.505c0.282,0.092,0.588,0.186,0.909,0.279c-0.673,0.994-1.409,2.526-1.492,4.567   C62.397,68.886,61.583,68.436,60.834,67.962z M57.739,46.176c0.6,0.287,1.389,0.635,2.336,0.996l-0.055,2.518   c-1.173-0.55-2.051-1.055-2.569-1.373L57.739,46.176z M59.4,33.847c0.288,0.172,0.609,0.329,0.954,0.472l-0.233,10.766   c-0.926-0.389-1.644-0.746-2.102-0.99L59.4,33.847z M85.415,42.021c-0.5,0.407-1.002,0.785-1.505,1.137L82.2,32.69   c0.246-0.153,0.472-0.312,0.679-0.476L85.415,42.021z M86.475,46.115c-0.607,0.559-1.217,1.074-1.83,1.545l-0.38-2.328   c0.568-0.365,1.135-0.763,1.699-1.19L86.475,46.115z M79.331,50.748l-0.407-2.818c1.158-0.396,2.324-0.9,3.49-1.518l0.412,2.525   C81.659,49.677,80.491,50.273,79.331,50.748z M73.592,64.004c0.701-3.033,0.354-7.209,0.338-7.404l-0.187-2.474   c1.211-0.119,2.447-0.332,3.7-0.666L76.9,63.652C75.805,63.877,74.691,63.984,73.592,64.004z M67.949,63.444l-0.275-9.475   c1.184,0.169,2.418,0.276,3.7,0.276c0.123,0,0.249-0.006,0.373-0.008l0.189,2.522c0.116,1.343,0.239,4.98-0.392,7.184   C70.279,63.854,69.063,63.67,67.949,63.444z M67.529,49.026c1.076,0.131,2.197,0.213,3.362,0.213c0.158,0,0.319-0.006,0.479-0.009   l0.232,3.092c-1.39,0.021-2.722-0.092-3.985-0.288L67.529,49.026z M65.604,51.642c-1.318-0.313-2.528-0.701-3.6-1.111l0.058-2.677   c1.045,0.322,2.203,0.622,3.457,0.861L65.604,51.642z M73.598,52.193l-0.23-3.076c1.183-0.113,2.392-0.311,3.618-0.617l0.423,2.926   C76.115,51.813,74.842,52.061,73.598,52.193z M80.326,33.628l1.748,10.703c-1.148,0.657-2.298,1.186-3.438,1.605l-1.631-11.291   C78.212,34.365,79.34,34.026,80.326,33.628z M75.043,35.042l1.66,11.502c-1.182,0.315-2.346,0.523-3.481,0.642l-0.888-11.791   C73.25,35.308,74.159,35.191,75.043,35.042z M70.338,35.514l0.888,11.796c-1.31,0.022-2.564-0.064-3.753-0.222l-0.336-11.547   c0.492,0.02,0.984,0.033,1.474,0.033C69.176,35.575,69.759,35.54,70.338,35.514z M65.131,35.398l0.33,11.349   c-1.231-0.258-2.358-0.577-3.355-0.914l0.236-10.889C63.211,35.147,64.152,35.296,65.131,35.398z M65.661,53.611l0.272,9.357   c-0.957-0.257-1.773-0.521-2.396-0.739l-1.281-9.563C63.299,53.021,64.438,53.347,65.661,53.611z M66.85,65.28   c0.768,0.175,1.595,0.33,2.459,0.457c-0.024,1.81-0.193,4.21-0.6,5.527c-1.179-0.294-2.327-0.666-3.428-1.092   C65.12,67.626,66.255,65.966,66.85,65.28z M71.304,65.959c0.619,0.047,1.247,0.077,1.886,0.077c0.114,0,0.23-0.009,0.345-0.011   c0.537,1.084,1.63,3.706,0.962,5.988c-1.266-0.004-2.554-0.117-3.837-0.338C71.154,69.916,71.277,67.419,71.304,65.959z    M87.188,52.861C87.188,52.861,87.188,52.861,87.188,52.861l-4.174,7.3l1.725-10.098c0.77-0.528,1.537-1.114,2.3-1.766l0.053,0.203   C87.831,51.259,87.182,52.861,87.188,52.861z M70.797,27.748c0.869-0.06,1.738-0.09,2.583-0.09c5.826,0,8.847,1.397,8.9,2.179   c0.07,1.011-4.086,3.164-11.087,3.648c-0.869,0.06-1.738,0.09-2.583,0.09c-5.826,0-8.847-1.397-8.9-2.179   C59.64,30.385,63.796,28.232,70.797,27.748z M57.049,51.305l0.116-0.861c0.73,0.4,1.738,0.907,2.965,1.422l1.075,8.021   l-3.034-4.649C56.794,53.487,57.047,51.321,57.049,51.305z M59.138,60.374c-0.535,0.167-1.131,0.387-1.698,0.671   c0.257-0.635,0.618-1.223,1.041-1.679L59.138,60.374z M57.151,63.756c0.208-0.501,1.571-1.205,3.129-1.628   c0.205,0.314,0.371,0.651,0.628,0.93c0.039,0.042,0.46,0.49,0.469,0.483c-0.905,0.688-1.772,1.712-2.263,3.154   C58.302,65.962,57.48,64.962,57.151,63.756z M83.656,68.84c-0.565,0.554-1.201,1.005-1.868,1.403   c0.063-2.235-0.91-4.259-1.657-5.466c0.453-0.186,0.9-0.396,1.34-0.631c0.837,0.629,2.53,2.133,2.757,4.124   C84.035,68.467,83.842,68.658,83.656,68.84z"/><rect x="34.244" y="81.63" width="42.956" height="2"/></g></svg>